#!OML:ASF X:\für Bonn\!DataBase\2005_08_10_Bjorn_Final\c3d\bjorn.ASF
:FULLY-SPECIFIED
:DEGREES
31
root 0.50843 19.0017 3.03896 -175.766 1.85733 -179.342
lowerback -7.15951 2.46023 2.34238
upperback 4.41549 3.17651 -0.491999
thorax 8.85338 1.74064 -1.35875
lowerneck -6.17374 -1.34517 4.02617
upperneck 15.1773 -2.01369 -5.57585
head 5.47938 -1.35964 -2.56531
rclavicle -2.33479e-014 3.8266e-015
rhumerus 65.3285 -0.0169601 -88.546
rradius 2.84549
rwrist 54.2814
rhand -20.2169 6.26237
rfingers 7.12502
rthumb 6.13046 -23.6289
lclavicle -2.33479e-014 3.8266e-015
lhumerus 65.4103 -13.0843 88.7387
lradius 5.00924
lwrist -67.9605
lhand -23.4042 -2.53067
lfingers 7.12502
lthumb 3.0528 27.4272
rfemur -19.9867 -8.6062 18.1654
rtibia 37.0865
rfoot -20.3163 9.11924
rtoes -14.1058
lfemur -18.7605 2.264 -17.8495
ltibia 37.0324
lfoot -17.5684 0.37157
ltoes -8.30071
32
root 0.510602 18.9544 3.06306 -175.695 1.99662 -179.326
lowerback -6.54564 2.48743 2.39438
upperback 4.46481 3.23334 -0.499337
thorax 8.55272 1.77614 -1.4124
lowerneck -6.27532 -1.3784 4.01663
upperneck 14.9201 -2.03205 -5.64424
head 5.41496 -1.36406 -2.582
rclavicle 6.02877e-015 -3.95085e-015
rhumerus 65.5629 -0.018576 -88.46
rradius 3.11941
rwrist 54.3887
rhand -20.2261 6.38913
rfingers 7.12502
rthumb 6.12154 -23.5024
lclavicle 6.02877e-015 -3.95085e-015
lhumerus 65.7267 -13.0956 88.6499
lradius 5.01949
lwrist -67.984
lhand -23.5134 -2.72281
lfingers 7.12502
lthumb 2.94726 27.2366
rfemur -20.7646 -8.38423 18.2241
rtibia 38.1906
rfoot -20.7737 9.00312
rtoes -14.6575
lfemur -19.5265 2.23607 -17.8557
ltibia 38.1691
lfoot -17.9605 0.703693
ltoes -9.08408
33
root 0.512122 18.9012 3.08849 -175.624 2.13859 -179.329
lowerback -5.91423 2.51372 2.43023
upperback 4.50934 3.29254 -0.5135
thorax 8.23688 1.81205 -1.46587
lowerneck -6.35554 -1.40625 4.01886
upperneck 14.6319 -2.04453 -5.70989
head 5.33758 -1.36406 -2.59851
rclavicle -1.23868e-014 4.01918e-015
rhumerus 65.7965 -0.0112357 -88.3798
rradius 3.38383
rwrist 54.5281
rhand -20.2839 6.48036
rfingers 7.12502
rthumb 6.06576 -23.4128
lclavicle -1.23868e-014 4.01918e-015
lhumerus 65.9974 -13.1113 88.5691
lradius 5.06623
lwrist -68.0959
lhand -23.603 -2.94297
lfingers 7.12502
lthumb 2.86072 27.0176
rfemur -21.5915 -8.18263 18.2562
rtibia 39.3823
rfoot -21.25 8.89637
rtoes -15.3028
lfemur -20.3439 2.20644 -17.891
ltibia 39.398
lfoot -18.4229 1.06249
ltoes -10.0296
34
root 0.51295 18.8428 3.11508 -175.532 2.29927 -179.326
lowerback -5.2893 2.54945 2.49797
upperback 4.55894 3.36414 -0.547379
thorax 7.93517 1.85685 -1.55684
lowerneck -6.48982 -1.43122 4.02104
upperneck 14.3448 -2.05956 -5.72247
head 5.27055 -1.36106 -2.59927
rclavicle 1.92922e-014 -3.35449e-016
rhumerus 66.0578 -0.0350859 -88.3149
rradius 3.62806
rwrist 54.7635
rhand -20.3893 6.57942
rfingers 7.12502
rthumb 5.96395 -23.3166
lclavicle 1.92922e-014 -3.35449e-016
lhumerus 66.2744 -13.1429 88.4604
lradius 5.11297
lwrist -68.218
lhand -23.6807 -3.17341
lfingers 7.12502
lthumb 2.78572 26.7881
rfemur -22.493 -8.00501 18.2894
rtibia 40.6454
rfoot -21.7196 8.86903
rtoes -15.8135
lfemur -21.2383 2.21122 -17.9292
ltibia 40.7219
lfoot -18.8839 1.45985
ltoes -11.0397
35
root 0.512829 18.7773 3.14468 -175.469 2.41925 -179.308
lowerback -4.6066 2.56037 2.56794
upperback 4.61686 3.405 -0.560965
thorax 7.60679 1.88666 -1.63504
lowerneck -6.63425 -1.45119 4.01485
upperneck 14.0556 -2.06644 -5.74792
head 5.20502 -1.35588 -2.60242
rclavicle 6.02294e-015 5.00611e-015
rhumerus 66.334 -0.0324162 -88.2333
rradius 3.84566
rwrist 55.0961
rhand -20.5081 6.71173
rfingers 7.12502
rthumb 5.84923 -23.1875
lclavicle 6.02294e-015 5.00611e-015
lhumerus 66.5296 -13.136 88.3628
lradius 5.16557
lwrist -68.4003
lhand -23.7484 -3.45007
lfingers 7.12502
lthumb 2.72031 26.5123
rfemur -23.4078 -7.85311 18.3377
rtibia 41.9913
rfoot -22.2329 8.7724
rtoes -16.5035
lfemur -22.1582 2.23463 -17.949
ltibia 42.1261
lfoot -19.3973 1.81383
ltoes -12.0076
36
root 0.513094 18.7065 3.17689 -175.4 2.5428 -179.329
lowerback -3.91619 2.57602 2.59983
upperback 4.68502 3.45864 -0.587538
thorax 7.28495 1.92176 -1.70507
lowerneck -6.80821 -1.47629 3.97888
upperneck 13.7616 -2.08269 -5.72898
head 5.14364 -1.35361 -2.58768
rclavicle 2.83159e-014 -6.28657e-015
rhumerus 66.6405 -0.0530807 -88.1426
rradius 4.04852
rwrist 55.4958
rhand -20.6735 6.93041
rfingers 7.12502
rthumb 5.68956 -22.9732
lclavicle 2.83159e-014 -6.28657e-015
lhumerus 66.8175 -13.16 88.273
lradius 5.17759
lwrist -68.6339
lhand -23.8069 -3.68679
lfingers 7.12502
lthumb 2.66385 26.2763
rfemur -24.3835 -7.72709 18.3467
rtibia 43.4043
rfoot -22.7339 8.72167
rtoes -17.0625
lfemur -23.1537 2.29086 -18.0165
ltibia 43.6246
lfoot -19.8964 2.18199
ltoes -12.9133
